<svg width="656" height="123" viewBox="0 0 656 123" fill="none" xmlns="http://www.w3.org/2000/svg">
<path d="M231.168 87.8C231.168 91.32 230.304 94.552 228.576 97.496C226.848 100.376 224.512 102.68 221.568 104.408C218.688 106.136 215.488 107 211.968 107H166.464V97.4H211.968C214.592 97.4 216.832 96.472 218.688 94.616C220.608 92.696 221.568 90.424 221.568 87.8C221.568 85.176 220.608 82.936 218.688 81.08C216.832 79.16 214.592 78.2 211.968 78.2H166.464V68.6H202.368C204.992 68.6 207.232 67.672 209.088 65.816C211.008 63.896 211.968 61.624 211.968 59C211.968 56.376 211.008 54.136 209.088 52.28C207.232 50.36 204.992 49.4 202.368 49.4H161.664V107H152.064V39.8H202.368C205.888 39.8 209.088 40.664 211.968 42.392C214.912 44.12 217.248 46.456 218.976 49.4C220.704 52.28 221.568 55.48 221.568 59C221.568 60.984 221.28 62.904 220.704 64.76C220.128 66.552 219.328 68.216 218.304 69.752C222.08 71.032 225.152 73.336 227.52 76.664C229.952 79.928 231.168 83.64 231.168 87.8ZM296.391 107H241.287V54.008H296.391V63.704H250.983V97.304H296.391V107ZM290.247 85.112H255.495V75.416H290.247V85.112ZM362.11 107H307.006V54.008H362.11V63.704H316.702V97.304H362.11V107ZM355.966 85.112H321.214V75.416H355.966V85.112Z" fill="#101214"/>
<path d="M444.245 107H400.949C396.277 107 392.053 106.136 388.277 104.408C384.501 102.68 381.237 100.28 378.484 97.208C375.797 94.136 373.717 90.584 372.245 86.552C370.773 82.456 370.037 78.072 370.037 73.4C370.037 68.792 370.773 64.472 372.245 60.44C373.717 56.344 375.797 52.76 378.484 49.688C381.237 46.552 384.501 44.12 388.277 42.392C392.053 40.664 396.277 39.8 400.949 39.8H444.245V49.4H400.949C396.533 49.4 392.725 50.488 389.525 52.664C386.389 54.776 383.957 57.656 382.229 61.304C380.501 64.952 379.637 68.984 379.637 73.4C379.637 77.816 380.501 81.848 382.229 85.496C383.957 89.08 386.389 91.96 389.525 94.136C392.725 96.312 396.533 97.4 400.949 97.4H444.245V107ZM515.046 107H505.446V92.504H468.486V82.712H505.446V63.704H480.486C477.35 63.704 474.502 64.472 471.942 66.008C469.382 67.544 467.334 69.592 465.798 72.152C464.262 74.648 463.494 77.464 463.494 80.6V107H453.798V80.6C453.798 76.952 454.47 73.528 455.814 70.328C457.222 67.064 459.142 64.216 461.574 61.784C464.07 59.352 466.918 57.464 470.118 56.12C473.382 54.712 476.838 54.008 480.486 54.008H515.046V107ZM586.8 91.448C586.8 94.328 586.096 96.952 584.688 99.32C583.344 101.624 581.488 103.48 579.12 104.888C576.752 106.296 574.128 107 571.248 107H526.416V97.4H571.248C572.912 97.4 574.32 96.824 575.472 95.672C576.688 94.52 577.296 93.112 577.296 91.448C577.296 89.784 576.688 88.376 575.472 87.224C574.32 86.008 572.912 85.4 571.248 85.4H541.872C539.056 85.4 536.464 84.696 534.096 83.288C531.792 81.88 529.936 79.992 528.528 77.624C527.12 75.256 526.416 72.632 526.416 69.752C526.416 66.936 527.12 64.344 528.528 61.976C529.936 59.608 531.792 57.72 534.096 56.312C536.464 54.904 539.056 54.2 541.872 54.2H583.248V63.704H541.872C540.272 63.704 538.864 64.312 537.648 65.528C536.496 66.68 535.92 68.088 535.92 69.752C535.92 71.416 536.496 72.856 537.648 74.072C538.864 75.224 540.272 75.8 541.872 75.8H571.248C574.128 75.8 576.752 76.504 579.12 77.912C581.488 79.32 583.344 81.208 584.688 83.576C586.096 85.944 586.8 88.568 586.8 91.448ZM651.891 107H596.787V54.008H651.891V63.704H606.483V97.304H651.891V107ZM645.747 85.112H610.995V75.416H645.747V85.112Z" fill="#FBC000"/>
<g clip-path="url(#clip0_65_47)">
<path d="M93.4817 105.476L86.27 117.976C86.1843 118.124 86.0272 118.214 85.8574 118.214H47.1217C46.9503 118.214 46.7948 118.124 46.7091 117.976L39.4974 105.476C39.3133 105.158 39.5434 104.76 39.9099 104.76H93.0676C93.4341 104.76 93.6642 105.158 93.4802 105.476H93.4817Z" fill="#FBC000"/>
<path d="M104.857 83.2724L97.6993 95.6802C97.6105 95.8327 97.4486 95.9264 97.2725 95.9264H35.0307C34.8545 95.9264 34.6911 95.8327 34.6038 95.6802L27.446 83.2724C27.2556 82.9437 27.4936 82.5325 27.8728 82.5325H104.43C104.81 82.5325 105.048 82.9437 104.857 83.2724Z" fill="#FBC000"/>
<path d="M109.678 71.8698H61.1248L62.3148 69.8055L66.9751 61.7263C67.11 61.496 67.3575 61.3531 67.6257 61.3531H104.718L110.231 70.9107C110.477 71.3362 110.17 71.8698 109.678 71.8698Z" fill="#FBC000"/>
<path d="M11.5611 77.4274H100.335C101.27 77.4274 101.853 78.4389 101.387 79.2487L99.8589 81.8973L94.5893 91.0309C94.3719 91.4072 93.9721 91.639 93.5373 91.639H29.1883C28.2537 91.639 27.6697 92.6505 28.1362 93.4604L31.497 99.2879C31.7144 99.6643 32.1142 99.8961 32.549 99.8961H98.3023C98.7355 99.8961 99.1369 99.6643 99.3543 99.2879L113.7 74.4215C114.102 73.7276 114.102 72.867 113.7 72.1746L99.3543 47.3082C99.1369 46.9318 98.7371 46.7 98.3023 46.7H60.8391C60.406 46.7 60.0045 46.4682 59.7871 46.0918L53.118 34.532C52.8435 34.0556 52.3294 33.7587 51.7804 33.7587H35.2433C34.6927 33.7587 34.1786 34.0556 33.9041 34.532L25.6355 48.8643C25.361 49.3407 25.361 49.9346 25.6355 50.4109L33.9041 64.7433C34.1786 65.2196 34.6927 65.5166 35.2433 65.5166H51.7804C52.3294 65.5166 52.8435 65.2196 53.118 64.7433L58.4114 55.5652C58.6288 55.1889 59.0287 54.9571 59.4634 54.9571H93.5389C93.9721 54.9571 94.3735 55.1889 94.5909 55.5652L97.5629 60.7164L101.389 67.3474C101.855 68.1572 101.271 69.1687 100.337 69.1687H13.6635C12.7289 69.1687 12.145 68.1572 12.6115 67.3458L32.7378 32.4598C32.9552 32.0834 33.3551 31.8516 33.7898 31.8516H80.2086C80.6418 31.8516 81.0432 32.0834 81.2606 32.4582L85.4607 39.7387C85.6781 40.115 86.078 40.3453 86.5127 40.3453H93.2374C94.172 40.3453 94.7559 39.3322 94.2894 38.5224L86.1224 24.3663C85.8479 23.8899 85.3338 23.593 84.7848 23.593H29.2168C28.6662 23.593 28.1521 23.8899 27.8776 24.3663L1.75812 69.6467L0.296722 72.1778C-0.0999653 72.8685 -0.0999653 73.7292 0.296722 74.4215L27.876 122.227C28.1505 122.703 28.6646 123 29.2152 123H37.8392M47.209 57.2611H39.8147C39.3815 57.2611 38.9801 57.0293 38.7627 56.6529L35.0672 50.2458C34.8498 49.8695 34.8498 49.4074 35.0672 49.031L38.7627 42.6239C38.9801 42.2476 39.3799 42.0157 39.8147 42.0157H47.209C47.6421 42.0157 48.0436 42.2476 48.261 42.6239L51.9565 49.031C52.1739 49.4074 52.1739 49.8695 51.9565 50.2458L48.261 56.6529C48.0436 57.0293 47.6437 57.2611 47.209 57.2611ZM80.2086 114.743H42.5106C41.576 114.743 40.9921 115.754 41.4586 116.564L44.8177 122.392C45.0351 122.768 45.435 123 45.8697 123H84.7816C85.3306 123 85.8447 122.703 86.1192 122.227L94.2862 108.071C94.7527 107.261 94.1688 106.248 93.2342 106.248H86.5096C86.0764 106.248 85.6749 106.48 85.4576 106.854L81.2574 114.135C81.04 114.511 80.6402 114.741 80.2054 114.741L80.2086 114.743Z" fill="black"/>
<path d="M89.4689 0C89.2626 0 89.0421 0.00635158 88.8072 0.0174669C79.1281 0.493836 73.8918 22.0892 73.8918 22.0892C73.8077 22.4243 73.9886 22.6275 74.317 22.6275C74.6106 22.6275 75.0216 22.4656 75.4658 22.0892C76.4052 21.2953 78.3347 16.6904 80.8735 12.8794C83.4123 9.06847 97.7644 0 89.4689 0Z" fill="black"/>
<path d="M24.5312 0C16.2356 0 30.6481 9.16057 33.1266 12.8794C35.6051 16.5983 37.5965 21.2953 38.5342 22.0892C38.9785 22.464 39.3895 22.6275 39.683 22.6275C40.0115 22.6275 40.1924 22.4243 40.1083 22.0892C40.1083 22.0892 34.872 0.493836 25.1928 0.0174669C24.958 0.00635158 24.7374 0 24.5312 0Z" fill="black"/>
</g>
<defs>
<clipPath id="clip0_65_47">
<rect width="114" height="123" fill="white"/>
</clipPath>
</defs>
</svg>
