<svg width="114" height="123" viewBox="0 0 114 123" fill="none" xmlns="http://www.w3.org/2000/svg">
<g clip-path="url(#clip0_65_38)">
<path d="M93.4817 105.476L86.27 117.976C86.1843 118.124 86.0272 118.214 85.8574 118.214H47.1217C46.9503 118.214 46.7948 118.124 46.7091 117.976L39.4974 105.476C39.3133 105.158 39.5434 104.76 39.9099 104.76H93.0676C93.4341 104.76 93.6642 105.158 93.4802 105.476H93.4817Z" fill="#FBC000"/>
<path d="M104.857 83.2724L97.6993 95.6802C97.6105 95.8327 97.4486 95.9264 97.2725 95.9264H35.0307C34.8545 95.9264 34.6911 95.8327 34.6038 95.6802L27.446 83.2724C27.2556 82.9437 27.4936 82.5325 27.8728 82.5325H104.43C104.81 82.5325 105.048 82.9437 104.857 83.2724Z" fill="#FBC000"/>
<path d="M109.678 71.8698H61.1248L62.3148 69.8055L66.9751 61.7263C67.11 61.496 67.3575 61.3531 67.6257 61.3531H104.718L110.231 70.9107C110.477 71.3362 110.17 71.8698 109.678 71.8698Z" fill="#FBC000"/>
<path d="M11.5611 77.4274H100.335C101.27 77.4274 101.853 78.4389 101.387 79.2487L99.8589 81.8973L94.5893 91.0309C94.3719 91.4072 93.9721 91.639 93.5373 91.639H29.1883C28.2537 91.639 27.6697 92.6505 28.1362 93.4604L31.497 99.2879C31.7144 99.6643 32.1142 99.8961 32.549 99.8961H98.3023C98.7355 99.8961 99.1369 99.6643 99.3543 99.2879L113.7 74.4215C114.102 73.7276 114.102 72.867 113.7 72.1746L99.3543 47.3082C99.1369 46.9318 98.7371 46.7 98.3023 46.7H60.8391C60.406 46.7 60.0045 46.4682 59.7871 46.0918L53.118 34.532C52.8435 34.0556 52.3294 33.7587 51.7804 33.7587H35.2433C34.6927 33.7587 34.1786 34.0556 33.9041 34.532L25.6355 48.8643C25.361 49.3407 25.361 49.9346 25.6355 50.4109L33.9041 64.7433C34.1786 65.2196 34.6927 65.5166 35.2433 65.5166H51.7804C52.3294 65.5166 52.8435 65.2196 53.118 64.7433L58.4114 55.5652C58.6288 55.1889 59.0287 54.9571 59.4634 54.9571H93.5389C93.9721 54.9571 94.3735 55.1889 94.5909 55.5652L97.5629 60.7164L101.389 67.3474C101.855 68.1572 101.271 69.1687 100.337 69.1687H13.6635C12.7289 69.1687 12.145 68.1572 12.6115 67.3458L32.7378 32.4598C32.9552 32.0834 33.3551 31.8516 33.7898 31.8516H80.2086C80.6418 31.8516 81.0432 32.0834 81.2606 32.4582L85.4607 39.7387C85.6781 40.115 86.078 40.3453 86.5127 40.3453H93.2374C94.172 40.3453 94.7559 39.3322 94.2894 38.5224L86.1224 24.3663C85.8479 23.8899 85.3338 23.593 84.7848 23.593H29.2168C28.6662 23.593 28.1521 23.8899 27.8776 24.3663L1.75812 69.6467L0.296722 72.1778C-0.0999653 72.8685 -0.0999653 73.7292 0.296722 74.4215L27.876 122.227C28.1505 122.703 28.6646 123 29.2152 123H37.8392M47.209 57.2611H39.8147C39.3815 57.2611 38.9801 57.0293 38.7627 56.6529L35.0672 50.2458C34.8498 49.8695 34.8498 49.4074 35.0672 49.031L38.7627 42.6239C38.9801 42.2476 39.3799 42.0157 39.8147 42.0157H47.209C47.6421 42.0157 48.0436 42.2476 48.261 42.6239L51.9565 49.031C52.1739 49.4074 52.1739 49.8695 51.9565 50.2458L48.261 56.6529C48.0436 57.0293 47.6437 57.2611 47.209 57.2611ZM80.2086 114.743H42.5106C41.576 114.743 40.9921 115.754 41.4586 116.564L44.8177 122.392C45.0351 122.768 45.435 123 45.8697 123H84.7816C85.3306 123 85.8447 122.703 86.1192 122.227L94.2862 108.071C94.7527 107.261 94.1688 106.248 93.2342 106.248H86.5096C86.0764 106.248 85.6749 106.48 85.4576 106.854L81.2574 114.135C81.04 114.511 80.6402 114.741 80.2054 114.741L80.2086 114.743Z" fill="black"/>
<path d="M89.4689 0C89.2626 0 89.0421 0.00635158 88.8072 0.0174669C79.1281 0.493836 73.8918 22.0892 73.8918 22.0892C73.8077 22.4243 73.9886 22.6275 74.317 22.6275C74.6106 22.6275 75.0216 22.4656 75.4658 22.0892C76.4052 21.2953 78.3347 16.6904 80.8735 12.8794C83.4123 9.06847 97.7644 0 89.4689 0Z" fill="current"/>
<path d="M24.5312 0C16.2356 0 30.6481 9.16057 33.1266 12.8794C35.6051 16.5983 37.5965 21.2953 38.5342 22.0892C38.9785 22.464 39.3895 22.6275 39.683 22.6275C40.0115 22.6275 40.1924 22.4243 40.1083 22.0892C40.1083 22.0892 34.872 0.493836 25.1928 0.0174669C24.958 0.00635158 24.7374 0 24.5312 0Z" fill="current"/>
</g>
<defs>
<clipPath id="clip0_65_38">
<rect width="114" height="123" fill="white"/>
</clipPath>
</defs>
</svg>
